<?xml version="1.0" encoding="iso-8859-1"?>
<!-- Generator: Adobe Illustrator 19.0.0, SVG Export Plug-In . SVG Version: 6.00 Build 0)  -->
<svg version="1.1" id="Capa_1" xmlns="http://www.w3.org/2000/svg" xmlns:xlink="http://www.w3.org/1999/xlink" x="0px" y="0px"
	 viewBox="0 0 463 463" style="enable-background:new 0 0 463 463;" xml:space="preserve">
<g>
	<path d="M439.36,127.737c-0.583-0.343-1.181-0.644-1.79-0.906l-27.24-85.888c-3.021-9.611-10.532-17.25-20.089-20.436
		L332.334,1.206c-2.4-0.8-4.9-1.206-7.431-1.206h-21.851c-7.915,0-14.533,5.908-15.393,13.742C284.516,42.394,260.372,64,231.5,64
		s-53.016-21.606-56.16-50.258C174.48,5.908,167.862,0,159.947,0h-21.851c-2.53,0-5.03,0.406-7.432,1.206L72.759,20.508
		c-9.558,3.186-17.068,10.825-20.085,20.419l-27.245,85.905c-0.609,0.261-1.207,0.562-1.79,0.906
		c-4.784,2.814-7.64,7.809-7.64,13.359v13.697c0,5.625,3.055,10.817,7.973,13.549L88,203.913V415.5c0,5.827,3.235,10.908,8,13.555
		V447.5c0,8.547,6.953,15.5,15.5,15.5h240c8.547,0,15.5-6.953,15.5-15.5v-18.445c4.765-2.647,8-7.728,8-13.555V203.913
		l64.027-35.571c4.918-2.732,7.973-7.924,7.973-13.549v-13.697C447,135.546,444.145,130.552,439.36,127.737z M422.347,128.45
		L375,154.754v-32.767c0-6.027,1.105-11.931,3.286-17.548l20.057-51.675L422.347,128.45z M160.43,15.378
		C164.41,51.648,194.964,79,231.5,79s67.09-27.352,71.07-63.622C302.594,15.17,302.81,15,303.053,15h16.62
		c-1.775,21.208-11.031,40.896-26.407,55.882C276.646,87.08,254.712,96,231.5,96c-23.318,0-45.327-8.992-61.971-25.318
		C154.265,55.708,145.1,36.108,143.334,15h16.613C160.19,15,160.406,15.17,160.43,15.378z M128.504,17.738
		c2.36,24.129,13.024,46.488,30.522,63.653C178.49,100.484,204.229,111,231.5,111c27.146,0,52.799-10.433,72.235-29.376
		c17.625-17.179,28.389-39.64,30.763-63.885l51,17c1.121,0.374,2.178,0.88,3.177,1.474L364.302,99.01
		c-2.854,7.354-4.302,15.085-4.302,22.976V167.5v32V368H103V199.5v-32v-45.514c0-7.891-1.447-15.622-4.302-22.976L74.324,36.212
		c0.999-0.593,2.056-1.1,3.177-1.473L128.504,17.738z M360,415.5c0,0.276-0.225,0.5-0.5,0.5h-256c-0.275,0-0.5-0.224-0.5-0.5V383
		h257V415.5z M64.657,52.761l20.057,51.677C86.895,110.055,88,115.959,88,121.986v32.767L40.653,128.45L64.657,52.761z
		 M31.258,155.23c-0.159-0.088-0.258-0.256-0.258-0.437v-13.697c0-0.114,0-0.286,0.246-0.431c0.102-0.06,0.188-0.081,0.26-0.081
		c0.103,0,0.178,0.042,0.236,0.075L88,171.913v14.84L31.258,155.23z M351.5,448h-240c-0.275,0-0.5-0.224-0.5-0.5V431h241v16.5
		C352,447.776,351.775,448,351.5,448z M432,154.793c0,0.181-0.099,0.349-0.258,0.437L375,186.753v-14.84l56.258-31.254
		c0.1-0.056,0.25-0.138,0.496,0.006C432,140.81,432,140.982,432,141.096V154.793z"/>
	<path d="M173.128,206.615c3.929,1.308,8.177-0.814,9.487-4.744l6.29-18.872H192v105h-8.5c-4.143,0-7.5,3.358-7.5,7.5
		s3.357,7.5,7.5,7.5h32c4.143,0,7.5-3.358,7.5-7.5s-3.357-7.5-7.5-7.5H207V175.5c0-4.142-3.357-7.5-7.5-7.5h-16
		c-3.229,0-6.095,2.066-7.115,5.128l-8,24C167.075,201.058,169.199,205.305,173.128,206.615z"/>
	<path d="M262.5,303h2c16.817,0,30.5-13.682,30.5-30.5v-74c0-16.818-13.683-30.5-30.5-30.5h-2c-16.817,0-30.5,13.682-30.5,30.5v74
		C232,289.318,245.683,303,262.5,303z M247,198.5c0-8.547,6.953-15.5,15.5-15.5h2c8.547,0,15.5,6.953,15.5,15.5v74
		c0,8.547-6.953,15.5-15.5,15.5h-2c-8.547,0-15.5-6.953-15.5-15.5V198.5z"/>
</g>
<g>
</g>
<g>
</g>
<g>
</g>
<g>
</g>
<g>
</g>
<g>
</g>
<g>
</g>
<g>
</g>
<g>
</g>
<g>
</g>
<g>
</g>
<g>
</g>
<g>
</g>
<g>
</g>
<g>
</g>
</svg>
